<svg width="40" height="40" viewBox="0 0 40 40" fill="none" xmlns="http://www.w3.org/2000/svg">
<circle cx="20" cy="20" r="20" fill="#0667F9"/>
<path d="M10 30H30" stroke="white" stroke-width="1.5" stroke-miterlimit="10" stroke-linecap="round" stroke-linejoin="round"/>
<path d="M10.95 30L11 17.97C11 17.36 11.29 16.78 11.77 16.4L18.77 10.95C19.49 10.39 20.4999 10.39 21.2299 10.95L28.23 16.39C28.72 16.77 29 17.35 29 17.97V30" stroke="white" stroke-width="1.5" stroke-miterlimit="10" stroke-linejoin="round"/>
<path d="M21 25H19C18.17 25 17.5 25.67 17.5 26.5V30H22.5V26.5C22.5 25.67 21.83 25 21 25Z" stroke="white" stroke-width="1.5" stroke-miterlimit="10" stroke-linejoin="round"/>
<path d="M17.5 21.75H15.5C14.95 21.75 14.5 21.3 14.5 20.75V19.25C14.5 18.7 14.95 18.25 15.5 18.25H17.5C18.05 18.25 18.5 18.7 18.5 19.25V20.75C18.5 21.3 18.05 21.75 17.5 21.75Z" stroke="white" stroke-width="1.5" stroke-miterlimit="10" stroke-linejoin="round"/>
<path d="M24.5 21.75H22.5C21.95 21.75 21.5 21.3 21.5 20.75V19.25C21.5 18.7 21.95 18.25 22.5 18.25H24.5C25.05 18.25 25.5 18.7 25.5 19.25V20.75C25.5 21.3 25.05 21.75 24.5 21.75Z" stroke="white" stroke-width="1.5" stroke-miterlimit="10" stroke-linejoin="round"/>
<path d="M27.0001 15L26.9701 12H22.5701" stroke="white" stroke-width="1.5" stroke-miterlimit="10" stroke-linecap="round" stroke-linejoin="round"/>
</svg>
