<svg width="40" height="40" viewBox="0 0 40 40" fill="none" xmlns="http://www.w3.org/2000/svg">
<circle cx="20" cy="20" r="20" fill="#0667F9"/>
<path d="M20.5 30.0001H12.08C10.92 30.0001 9.96997 29.0701 9.96997 27.9301V13.0901C9.96997 10.4701 11.92 9.2801 14.31 10.4501L18.75 12.6301C19.71 13.1001 20.5 14.3501 20.5 15.4101V30.0001Z" stroke="white" stroke-width="1.5" stroke-linecap="round" stroke-linejoin="round"/>
<path d="M29.97 23.0602V26.8402C29.97 29.0002 28.97 30.0002 26.81 30.0002H20.5V18.4202L20.97 18.5202L25.47 19.5302L27.5 19.9802C28.82 20.2702 29.9 20.9502 29.96 22.8702C29.97 22.9302 29.97 22.9902 29.97 23.0602Z" stroke="white" stroke-width="1.5" stroke-linecap="round" stroke-linejoin="round"/>
<path d="M13.5 17H16.97" stroke="white" stroke-width="1.5" stroke-linecap="round" stroke-linejoin="round"/>
<path d="M13.5 21H16.97" stroke="white" stroke-width="1.5" stroke-linecap="round" stroke-linejoin="round"/>
<path d="M25.47 19.53V22.75C25.47 23.99 24.46 25 23.22 25C21.98 25 20.97 23.99 20.97 22.75V18.52L25.47 19.53Z" stroke="white" stroke-width="1.5" stroke-linecap="round" stroke-linejoin="round"/>
<path d="M29.96 22.87C29.9 24.05 28.92 25 27.72 25C26.48 25 25.47 23.99 25.47 22.75V19.53L27.5 19.98C28.82 20.27 29.9 20.95 29.96 22.87Z" stroke="white" stroke-width="1.5" stroke-linecap="round" stroke-linejoin="round"/>
</svg>
