<svg width="40" height="40" viewBox="0 0 40 40" fill="none" xmlns="http://www.w3.org/2000/svg">
<circle cx="20" cy="20" r="20" fill="#0667F9"/>
<path d="M9 30H31" stroke="white" stroke-width="1.5" stroke-miterlimit="10" stroke-linecap="round" stroke-linejoin="round"/>
<path d="M27.78 30.0101V25.55" stroke="white" stroke-width="1.5" stroke-miterlimit="10" stroke-linecap="round" stroke-linejoin="round"/>
<path d="M27.8001 18.8901C26.5801 18.8901 25.6001 19.8701 25.6001 21.0901V23.3601C25.6001 24.5801 26.5801 25.5601 27.8001 25.5601C29.0201 25.5601 30.0001 24.5801 30.0001 23.3601V21.0901C30.0001 19.8701 29.0201 18.8901 27.8001 18.8901Z" stroke="white" stroke-width="1.5" stroke-miterlimit="10" stroke-linecap="round" stroke-linejoin="round"/>
<path d="M10.1001 30V14.03C10.1001 12.02 11.1001 11.01 13.0901 11.01H19.3201C21.3101 11.01 22.3001 12.02 22.3001 14.03V30" stroke="white" stroke-width="1.5" stroke-miterlimit="10" stroke-linecap="round" stroke-linejoin="round"/>
<path d="M13.8 16.25H18.7501" stroke="white" stroke-width="1.5" stroke-miterlimit="10" stroke-linecap="round" stroke-linejoin="round"/>
<path d="M13.8 20H18.7501" stroke="white" stroke-width="1.5" stroke-miterlimit="10" stroke-linecap="round" stroke-linejoin="round"/>
<path d="M16.25 30V26.25" stroke="white" stroke-width="1.5" stroke-miterlimit="10" stroke-linecap="round" stroke-linejoin="round"/>
</svg>
