<svg width="168" height="33" viewBox="0 0 168 33" fill="none" xmlns="http://www.w3.org/2000/svg">
<path d="M144.948 18.6452H141.968L141.568 21.5497H144.548L144.948 18.6452ZM152.32 21.5497V25.4828H148.634L147.804 31.7455H143.227L144.057 25.4828H141.077L140.247 31.7455H135.701L136.561 25.4828H133.366V21.5497H137.052L137.421 18.6452H134.288V14.7424H137.943L138.711 8.93353H143.227L142.459 14.7424H145.439L146.238 8.93353H150.784L150.016 14.7424H153.15V18.6452H149.525L149.125 21.5497H152.32Z" fill="black"/>
<path d="M161.834 13.9558H158.455V8.93353H167.855V31.7455H161.834V13.9558Z" fill="black"/>
<path d="M6.02112 19.4016H8.01792C10.2298 19.4016 11.3357 18.4536 11.3357 16.5577C11.3357 14.6617 10.2298 13.7137 8.01792 13.7137H6.02112V19.4016ZM6.02112 31.7455H0V8.93353H9.58464C12.1856 8.93353 14.1722 9.59913 15.5443 10.9303C16.937 12.2615 17.6333 14.1373 17.6333 16.5577C17.6333 18.978 16.937 20.8538 15.5443 22.185C14.1722 23.5162 12.1856 24.1818 9.58464 24.1818H6.02112V31.7455Z" fill="black"/>
<path d="M32.1252 23.2742L29.4218 15.6803L26.7185 23.2742H32.1252ZM33.7226 27.7821H25.121L23.7386 31.7455H17.3182L26.1348 8.93353H32.7089L41.5255 31.7455H35.105L33.7226 27.7821Z" fill="black"/>
<path d="M50.2111 8.93353V22.9111L61.301 8.93353H67.3222V31.7455H61.301V17.7981L50.2111 31.7455H44.19V8.93353H50.2111ZM44.19 0.545454C44.19 0.545454 51.7136 0.545454 55.9558 0.545454C60.3946 0.545454 67.3222 0.545454 67.3222 0.545454V6.07258C67.3222 6.07258 60.3946 6.07258 55.9558 6.07258C51.7136 6.07258 44.19 6.07258 44.19 6.07258V0.545454Z" fill="black"/>
<path d="M77.4331 20.3395C77.4331 21.2471 77.6072 22.0842 77.9554 22.8506C78.3035 23.6171 78.7746 24.2827 79.3685 24.8474C79.9624 25.4122 80.6485 25.8559 81.4267 26.1786C82.2254 26.4812 83.0651 26.6324 83.9457 26.6324C84.8264 26.6324 85.6558 26.4812 86.4341 26.1786C87.2328 25.8559 87.9291 25.4122 88.523 24.8474C89.1374 24.2827 89.6187 23.6171 89.9669 22.8506C90.315 22.0842 90.4891 21.2471 90.4891 20.3395C90.4891 19.4319 90.315 18.5948 89.9669 17.8284C89.6187 17.0619 89.1374 16.3963 88.523 15.8316C87.9291 15.2668 87.2328 14.8332 86.4341 14.5306C85.6558 14.2079 84.8264 14.0465 83.9457 14.0465C83.0651 14.0465 82.2254 14.2079 81.4267 14.5306C80.6485 14.8332 79.9624 15.2668 79.3685 15.8316C78.7746 16.3963 78.3035 17.0619 77.9554 17.8284C77.6072 18.5948 77.4331 19.4319 77.4331 20.3395ZM71.1355 20.3395C71.1355 18.6452 71.453 17.072 72.0878 15.6198C72.7227 14.1474 73.6034 12.8666 74.7298 11.7775C75.8562 10.6883 77.1976 9.84116 78.7541 9.23607C80.331 8.61081 82.0616 8.29818 83.9457 8.29818C85.8094 8.29818 87.5298 8.61081 89.1067 9.23607C90.6837 9.84116 92.0354 10.6883 93.1618 11.7775C94.3086 12.8666 95.1995 14.1474 95.8344 15.6198C96.4693 17.072 96.7867 18.6452 96.7867 20.3395C96.7867 22.0337 96.4693 23.6171 95.8344 25.0895C95.1995 26.5417 94.3086 27.8124 93.1618 28.9015C92.0354 29.9907 90.6837 30.8479 89.1067 31.4732C87.5298 32.0783 85.8094 32.3808 83.9457 32.3808C82.0616 32.3808 80.331 32.0783 78.7541 31.4732C77.1976 30.8479 75.8562 29.9907 74.7298 28.9015C73.6034 27.8124 72.7227 26.5417 72.0878 25.0895C71.453 23.6171 71.1355 22.0337 71.1355 20.3395Z" fill="black"/>
<path d="M106.611 17.7376H115.305V8.93353H121.326V31.7455H115.305V22.3363H106.611V31.7455H100.59V8.93353H106.611V17.7376Z" fill="black"/>
</svg>
